<svg width="525" height="530" viewBox="0 0 525 530" fill="none" xmlns="http://www.w3.org/2000/svg">
<g clip-path="url(#clip0_3_14)">
<g clip-path="url(#clip1_3_14)">
<path d="M271.904 278.861C269.035 275.7 264.295 276.624 261.142 278.855C257.083 281.726 255.923 286.97 255.324 291.619C254.31 299.488 254.01 310.612 245.087 313.902C240.964 315.421 236.245 314.166 232.762 311.698C228.959 309.002 226.586 304.856 224.997 300.558C223.073 295.354 221.959 289.788 221.015 284.335C220.05 278.759 219.417 273.122 219.133 267.47C218.855 261.94 219.036 256.446 219.256 250.92C219.427 246.605 219.493 242.075 218.035 237.949C216.563 233.782 213.141 230.612 208.641 230.194C204.273 229.788 199.774 231.63 196.614 234.603C189.031 241.736 188.674 253.381 186.979 262.945C186.089 267.97 184.787 273.054 182.059 277.426C179.814 281.022 176.696 284.036 173.103 286.272C165.858 290.783 156.625 292.099 148.585 289C140.735 285.975 134.417 279.361 131.683 271.411C131.007 269.448 130.59 267.42 130.379 265.357C130.28 264.397 131.781 264.404 131.879 265.357C132.778 274.126 138.407 282.068 146.121 286.227C154.058 290.507 163.67 289.964 171.425 285.527C175.237 283.346 178.554 280.269 180.858 276.517C183.653 271.967 184.849 266.664 185.72 261.456C187.292 252.051 188.006 241.253 195.054 234.032C200.521 228.432 210.58 226.184 216.455 232.422C222.505 238.845 220.691 249.192 220.498 257.166C220.215 268.844 221.419 280.549 224.088 291.921C225.25 296.871 226.586 301.976 229.502 306.221C232.166 310.1 236.521 313.107 241.371 313.059C246.207 313.011 249.605 309.457 251.322 305.219C253.133 300.748 253.252 295.92 253.879 291.201C254.454 286.869 255.502 282.075 258.751 278.904C261.277 276.439 265.025 274.852 268.581 275.419C270.289 275.692 271.804 276.522 272.965 277.8C273.613 278.514 272.555 279.578 271.904 278.861H271.904Z" fill="#219D7F"/>
<path d="M55.1301 439.225C55.9744 437.802 59.6269 439.326 60.2984 438.034C60.9676 436.747 57.5739 434.785 55.6351 430.304C55.2854 429.496 53.0821 424.404 54.7132 422.833C57.805 419.854 71.9529 432.145 76.904 428.123C77.9906 427.24 78.7497 425.478 82.0382 422.617C83.3465 421.479 84.1376 420.965 84.9032 421.156C85.9896 421.428 86.0757 422.881 87.2406 425.74C88.9876 430.028 90.0208 429.769 91.0387 433.189C91.7943 435.728 91.6217 437.205 92.5109 437.492C93.7691 437.899 94.9273 435.206 96.5219 435.447C98.1491 435.693 99.1328 438.829 99.4436 441.177C100.027 445.583 98.4086 448.491 97.5117 451.548C96.5371 454.87 95.9587 459.923 98.2094 467.075L120.487 529.842C115.569 516.962 101.328 481.656 95.3445 468.536C93.617 464.749 91.7097 460.907 87.7935 459.391C84.023 457.931 78.8448 458.803 72.2432 457.212C71.4722 457.027 69.3327 456.482 69.0634 455.224C68.8407 454.183 70.0992 453.603 69.9059 452.628C69.6465 451.321 67.1717 451.305 64.1305 449.797C61.9861 448.734 60.6501 447.47 59.5012 446.382C59.1548 446.054 54.0061 441.12 55.1301 439.225H55.1301H55.1301Z" fill="#F2F2F2"/>
<path d="M142.775 472.268C143.718 472.272 144.023 474.504 144.851 474.461C145.676 474.418 145.66 472.186 147.299 469.942C147.595 469.537 149.459 466.986 150.701 467.334C153.054 467.992 151.104 478.482 154.507 479.751C155.254 480.03 156.337 479.894 158.69 480.683C159.627 480.996 160.107 481.236 160.234 481.667C160.414 482.279 159.726 482.741 158.659 484.137C157.058 486.232 157.484 486.664 156.099 488.151C155.07 489.254 154.296 489.595 154.411 490.115C154.575 490.85 156.231 490.641 156.572 491.493C156.921 492.363 155.666 493.751 154.603 494.581C152.609 496.138 150.715 496.183 148.956 496.625C147.044 497.105 144.397 498.279 141.536 501.447L117.158 530.491C122.06 524.361 135.28 507.185 139.992 500.463C141.353 498.522 142.688 496.477 142.302 494.118C141.931 491.846 140.009 489.556 138.885 485.857C138.753 485.425 138.403 484.218 138.943 483.723C139.39 483.313 140.038 483.763 140.46 483.387C141.027 482.883 140.321 481.664 140.183 479.736C140.086 478.377 140.322 477.356 140.524 476.478C140.585 476.214 141.521 472.263 142.775 472.268V472.268V472.268Z" fill="#F2F2F2"/>
<path d="M123.976 476.488L124.543 471.42L124.284 471.036C123.084 469.259 122.472 467.524 122.464 465.877C122.463 465.615 122.475 465.353 122.488 465.087C122.537 464.029 122.598 462.715 121.913 461.183C121.528 460.329 120.449 458.352 118.827 458.597C118.39 458.658 118.059 458.858 117.809 459.093C117.772 459.035 117.734 458.976 117.694 458.912C117.188 458.141 116.788 457.811 116.403 457.493C116.107 457.248 115.801 456.996 115.321 456.399C115.111 456.137 114.947 455.907 114.808 455.714C114.389 455.129 113.84 454.431 112.874 454.444C111.841 454.493 111.3 455.347 110.942 455.912C110.302 456.92 110.012 457.647 109.82 458.129C109.75 458.305 109.67 458.504 109.63 458.565C109.297 459.054 106.592 458.597 105.573 458.43C103.283 458.048 101.302 457.718 100.486 459.162C99.9012 460.195 100.336 461.56 101.816 463.329C102.277 463.88 102.768 464.299 103.204 464.627C102.843 464.842 102.52 465.172 102.389 465.691C102.08 466.92 103.136 468.15 105.526 469.355C106.12 469.656 106.919 470.057 108.038 470.25C108.566 470.341 109.04 470.363 109.447 470.375C109.455 470.61 109.51 470.864 109.653 471.126C110.073 471.897 110.947 472.264 112.263 472.176C113.712 472.1 114.905 471.824 115.957 471.581C116.876 471.371 117.668 471.192 118.289 471.234C119.442 471.327 120.33 472.25 121.373 473.446L123.976 476.488H123.976V476.488Z" fill="#F2F2F2"/>
<path d="M121.342 446.312L126.1 448.147L126.538 447.993C128.561 447.283 130.394 447.131 131.989 447.542C132.243 447.607 132.493 447.685 132.748 447.765C133.758 448.08 135.014 448.473 136.669 448.199C137.593 448.044 139.779 447.501 139.954 445.87C140.006 445.432 139.896 445.061 139.732 444.759C139.798 444.738 139.865 444.717 139.936 444.694C140.81 444.4 141.231 444.097 141.637 443.805C141.949 443.581 142.27 443.349 142.969 443.036C143.276 442.899 143.54 442.799 143.762 442.714C144.434 442.457 145.248 442.103 145.481 441.165C145.696 440.154 145.007 439.414 144.551 438.924C143.738 438.049 143.109 437.584 142.691 437.276C142.538 437.164 142.367 437.037 142.318 436.982C141.929 436.536 143.058 434.035 143.477 433.091C144.427 430.974 145.249 429.141 144.06 427.986C143.209 427.158 141.778 427.232 139.691 428.215C139.041 428.522 138.512 428.89 138.084 429.228C137.968 428.825 137.73 428.428 137.261 428.17C136.151 427.56 134.693 428.269 132.922 430.276C132.48 430.773 131.889 431.444 131.418 432.478C131.197 432.965 131.055 433.419 130.94 433.809C130.711 433.758 130.451 433.746 130.161 433.818C129.309 434.029 128.732 434.781 128.484 436.077C128.189 437.497 128.154 438.721 128.122 439.801C128.092 440.743 128.064 441.554 127.866 442.145C127.484 443.236 126.366 443.861 124.944 444.566L121.342 446.312H121.342V446.312Z" fill="#F2F2F2"/>
<path d="M123.976 431.381L124.543 426.313L124.284 425.929C123.084 424.152 122.472 422.417 122.464 420.77C122.463 420.508 122.475 420.246 122.488 419.98C122.537 418.922 122.598 417.608 121.913 416.076C121.528 415.222 120.449 413.245 118.827 413.49C118.39 413.551 118.059 413.751 117.809 413.986C117.772 413.928 117.734 413.869 117.694 413.805C117.188 413.034 116.788 412.704 116.403 412.386C116.107 412.141 115.801 411.889 115.321 411.292C115.111 411.03 114.947 410.8 114.808 410.607C114.389 410.022 113.84 409.324 112.874 409.337C111.841 409.386 111.3 410.24 110.942 410.805C110.302 411.813 110.012 412.54 109.82 413.022C109.75 413.198 109.67 413.397 109.63 413.458C109.297 413.947 106.592 413.49 105.573 413.323C103.283 412.941 101.302 412.611 100.486 414.055C99.9012 415.088 100.336 416.453 101.816 418.223C102.277 418.773 102.768 419.192 103.204 419.52C102.843 419.735 102.52 420.065 102.389 420.584C102.08 421.813 103.136 423.044 105.526 424.248C106.12 424.549 106.919 424.95 108.038 425.143C108.566 425.234 109.04 425.256 109.447 425.268C109.455 425.503 109.51 425.758 109.653 426.019C110.073 426.79 110.947 427.157 112.263 427.069C113.712 426.993 114.905 426.717 115.957 426.475C116.876 426.264 117.668 426.085 118.289 426.127C119.442 426.22 120.33 427.143 121.373 428.339L123.976 431.381H123.976V431.381Z" fill="#F2F2F2"/>
<path d="M118.79 529.759L119.852 529.093L120.109 527.867L119.852 529.093L121.09 529.235C121.11 529.12 121.177 528.856 121.279 528.442C121.833 526.176 123.523 519.28 124.932 508.419C125.916 500.838 126.473 493.043 126.588 485.249C126.703 477.443 126.333 471.533 126.037 466.783C125.813 463.2 125.542 459.788 125.275 456.465C124.565 447.587 123.896 439.2 124.394 429.915C124.504 427.843 124.735 423.528 127.256 418.937C128.718 416.275 130.732 413.911 133.243 411.914L131.682 409.951C128.91 412.158 126.682 414.777 125.058 417.733C122.264 422.823 122.012 427.524 121.891 429.783C121.384 439.232 122.061 447.699 122.778 456.663C123.042 459.974 123.314 463.371 123.536 466.939C123.83 471.645 124.196 477.504 124.082 485.21C123.969 492.911 123.419 500.61 122.449 508.096C121.056 518.82 119.391 525.613 118.844 527.845C118.553 529.037 118.491 529.287 118.79 529.759V529.759L118.79 529.759Z" fill="#F2F2F2"/>
<path d="M137.839 415.895C137.942 415.895 138.046 415.893 138.151 415.885C140.285 415.77 142.261 414.493 144.026 412.09C144.853 410.959 145.276 409.67 146.12 407.098C146.251 406.701 146.888 404.69 147.274 401.922C147.528 400.113 147.496 399.357 147.137 398.689C146.739 397.945 146.096 397.426 145.372 397.076C145.403 396.836 145.378 396.589 145.274 396.337C144.847 395.292 143.711 395.429 143.097 395.495C142.786 395.535 142.398 395.586 141.98 395.564C141.321 395.532 140.968 395.336 140.432 395.043C139.919 394.761 139.282 394.411 138.336 394.218C136.471 393.829 134.908 394.357 134.393 394.531C131.683 395.434 130.347 397.541 128.8 399.981C128.492 400.47 127.433 402.252 126.735 404.694C126.231 406.456 126.302 407.239 126.453 407.822C126.762 409.019 127.49 409.704 129.339 411.216C131.269 412.8 132.239 413.592 133.071 414.075C135.008 415.193 136.224 415.895 137.839 415.895V415.895V415.895Z" fill="#F2F2F2"/>
<path d="M190.86 217.335H225.08C225.943 217.335 226.645 216.633 226.645 215.771C226.645 214.908 225.943 214.206 225.08 214.206H190.86C189.997 214.206 189.295 214.908 189.295 215.771C189.295 216.633 189.997 217.335 190.86 217.335V217.335Z" fill="#E6E6E6"/>
<path d="M137.86 308.335H172.08C172.943 308.335 173.645 307.633 173.645 306.771C173.645 305.908 172.943 305.206 172.08 305.206H137.86C136.997 305.206 136.295 305.908 136.295 306.771C136.295 307.633 136.997 308.335 137.86 308.335V308.335Z" fill="#E6E6E6"/>
<path d="M109.86 370.335H144.08C144.943 370.335 145.645 369.633 145.645 368.771C145.645 367.908 144.943 367.206 144.08 367.206H109.86C108.997 367.206 108.295 367.908 108.295 368.771C108.295 369.633 108.997 370.335 109.86 370.335V370.335Z" fill="#E6E6E6"/>
<path d="M265.86 183.335H300.08C300.943 183.335 301.645 182.633 301.645 181.771C301.645 180.908 300.943 180.206 300.08 180.206H265.86C264.997 180.206 264.295 180.908 264.295 181.771C264.295 182.633 264.997 183.335 265.86 183.335V183.335Z" fill="#E6E6E6"/>
<path d="M127.422 352.18H282.522C283.074 352.18 283.522 351.732 283.522 351.18V203.18C283.522 202.627 283.074 202.18 282.522 202.18C281.97 202.18 281.522 202.627 281.522 203.18V263.568C281.522 311.402 242.745 350.18 194.91 350.18H127.422C126.87 350.18 126.422 350.627 126.422 351.18C126.422 351.732 126.87 352.18 127.422 352.18H127.422Z" fill="#E6E6E6"/>
<path d="M249.86 292.699H284.08C284.943 292.699 285.645 291.997 285.645 291.134C285.645 290.272 284.943 289.57 284.08 289.57H249.86C248.997 289.57 248.295 290.272 248.295 291.134C248.295 291.997 248.997 292.699 249.86 292.699V292.699Z" fill="#E6E6E6"/>
<path d="M283.79 297.152C278.363 295.359 274.889 291.106 276.03 287.652C277.171 284.199 282.495 282.853 287.924 284.646C290.103 285.333 292.085 286.532 293.705 288.142L316.604 296.026L312.676 306.693L290.518 297.788C288.257 298.116 285.95 297.898 283.79 297.152V297.152Z" fill="#FFB6B6"/>
<path d="M401.503 358.289C401.318 364.001 398.22 368.536 394.585 368.418C390.949 368.299 388.153 363.573 388.339 357.858C388.382 355.574 388.972 353.334 390.058 351.325L391.149 327.131L402.491 327.885L400.212 351.656C401.166 353.732 401.609 356.007 401.503 358.289L401.503 358.289Z" fill="#FFB6B6"/>
<path d="M375.317 521.311L365.192 521.31L362.598 482L375.319 482.26L375.317 521.311Z" fill="#FFB6B6"/>
<path d="M340.629 521.082C340.314 521.613 340.147 523.326 340.147 523.944C340.147 525.841 341.686 527.38 343.584 527.38H374.938C376.232 527.38 377.282 526.33 377.282 525.036V523.73C377.282 523.73 378.833 519.807 375.64 514.971C375.64 514.971 371.671 518.758 365.74 512.827L363.991 509.659L351.332 518.917L344.315 519.781C342.78 519.97 341.419 519.752 340.629 521.082H340.629V521.082Z" fill="#2F2E41"/>
<path d="M351.317 521.311L341.192 521.31L338.598 482L351.319 482.26L351.317 521.311Z" fill="#FFB6B6"/>
<path d="M316.629 521.082C316.314 521.613 316.147 523.326 316.147 523.944C316.147 525.841 317.686 527.38 319.584 527.38H350.938C352.232 527.38 353.282 526.33 353.282 525.036V523.73C353.282 523.73 354.833 519.807 351.64 514.971C351.64 514.971 347.671 518.758 341.74 512.827L339.991 509.659L327.332 518.917L320.315 519.781C318.78 519.97 317.419 519.752 316.629 521.082H316.629V521.082Z" fill="#2F2E41"/>
<path d="M369.425 228.515C361.2 228.515 354.532 221.847 354.532 213.622C354.532 205.396 361.2 198.728 369.425 198.728C377.65 198.728 384.318 205.396 384.318 213.622C384.318 221.847 377.65 228.515 369.425 228.515Z" fill="#FFB6B6"/>
<path d="M390.032 337.5L383.032 437.5L379.032 504.5L360.032 503.5L362.032 430.5L358.032 385.5L352.032 503.5H336.91L331.032 338.5L363.532 334L390.032 337.5Z" fill="#2F2E41"/>
<path d="M364.032 225.5C368.268 229.578 378.057 226.874 383.032 225.5C385.77 224.744 387.423 223.964 388.032 222.5C388.455 221.482 388.215 220.517 389.032 218.5C389.511 217.319 389.763 217.23 390.032 216.5C390.782 214.464 389.74 212.65 389.032 210.5C387.554 206.015 389.319 205.511 388.032 202.5C386.098 197.973 380.836 196.131 379.032 195.5C375.664 194.321 372.855 194.446 372.032 194.5C366.756 194.847 363.23 197.554 362.032 198.5C359.604 200.417 358.413 202.445 356.032 206.5C353.959 210.029 353.808 211.383 354.032 212.5C354.372 214.202 355.354 214.208 356.032 216.5C356.801 219.102 355.926 220.409 357.032 221.5C357.779 222.237 358.474 221.931 360.032 222.5C362.176 223.284 363.234 224.732 364.032 225.5Z" fill="#2F2E41"/>
<path d="M352.032 240.5C352.032 240.5 367.032 221.5 386.032 228.5L392.185 240.5L394.241 242.446C402.865 250.61 406.878 262.52 404.952 274.238L396.032 328.5C396.032 328.5 397.032 349.5 390.032 355.5C390.032 355.5 380.032 336.5 356.032 345.5C332.032 354.5 327.032 349.5 327.032 349.5L335.032 292.5L352.032 240.5V240.5Z" fill="#2F2E41"/>
<path d="M357.032 243.5L362.032 254.5L343.032 318.5L291.032 299.5L298.032 287.5L323.032 294.5C323.032 294.5 342.032 238.5 357.032 243.5Z" fill="#2F2E41"/>
<path d="M392.532 344H403.532L405.532 264L392.532 291V344Z" fill="#2F2E41"/>
<path d="M272.032 283C269.547 283 267.532 280.985 267.532 278.5C267.532 276.015 269.547 274 272.032 274C274.517 274 276.532 276.015 276.532 278.5C276.532 280.985 274.517 283 272.032 283Z" fill="#3F3D56"/>
<path d="M242.032 318C239.547 318 237.532 315.985 237.532 313.5C237.532 311.015 239.547 309 242.032 309C244.517 309 246.532 311.015 246.532 313.5C246.532 315.985 244.517 318 242.032 318Z" fill="#3F3D56"/>
<path d="M208.032 234C205.547 234 203.532 231.985 203.532 229.5C203.532 227.015 205.547 225 208.032 225C210.517 225 212.532 227.015 212.532 229.5C212.532 231.985 210.517 234 208.032 234Z" fill="#3F3D56"/>
<path d="M158.032 294C155.547 294 153.532 291.985 153.532 289.5C153.532 287.015 155.547 285 158.032 285C160.517 285 162.532 287.015 162.532 289.5C162.532 291.985 160.517 294 158.032 294Z" fill="#3F3D56"/>
<path d="M129.032 270C126.547 270 124.532 267.985 124.532 265.5C124.532 263.015 126.547 261 129.032 261C131.517 261 133.532 263.015 133.532 265.5C133.532 267.985 131.517 270 129.032 270Z" fill="#3F3D56"/>
<path d="M137.605 170.024L129.375 173.923C132.75 169.212 135.659 161.854 137.216 156C139.853 161.453 144.103 168.126 148.31 172.112L139.612 169.874C144.972 196.142 165.131 215 188.216 215L188.543 215.949C164.43 215.949 143.077 197.352 137.605 170.024V170.024Z" fill="#3F3D56"/>
<path d="M162.484 130H110.484C108.278 130 106.484 131.794 106.484 134C106.484 136.206 108.278 138 110.484 138H162.484C164.69 138 166.484 136.206 166.484 134C166.484 131.794 164.69 130 162.484 130Z" fill="#219D7F"/>
<path d="M127.354 360.364C127.902 360.364 128.455 360.242 128.982 359.995C130.281 359.385 131.097 358.164 131.164 356.73L131.703 345.104C131.772 343.611 130.993 342.254 129.669 341.561C128.345 340.867 126.784 341.002 125.597 341.908L117.679 347.964C116.727 348.691 116.183 349.797 116.187 350.994C116.191 352.193 116.741 353.294 117.698 354.017L125.077 359.588C125.758 360.102 126.55 360.364 127.354 360.364V360.364Z" fill="#E6E6E6"/>
<path d="M273.325 204.149C273.325 204.697 273.447 205.251 273.695 205.778C274.305 207.077 275.526 207.893 276.959 207.959L288.585 208.498C290.078 208.568 291.436 207.788 292.129 206.464C292.822 205.14 292.688 203.58 291.781 202.393L285.726 194.475C284.998 193.523 283.893 192.979 282.696 192.983C281.496 192.986 280.396 193.537 279.673 194.493L274.102 201.872C273.588 202.553 273.325 203.346 273.325 204.149V204.149Z" fill="#E6E6E6"/>
<path d="M208.401 193.853C214.321 192.435 220.647 193.718 225.707 197.061C231.014 200.567 234.528 206.18 235.717 212.399C238.171 225.229 230.674 238.046 218.827 243.153C206.373 248.521 191.557 244.919 182.512 234.956C178.03 230.018 175.228 223.77 174.384 217.164C173.553 210.655 174.501 203.146 178.442 197.714C182.351 192.326 188.861 190.518 195.147 189.635C201.247 188.778 209.339 188.406 212.637 194.862C213.266 196.093 213.562 197.42 213.492 198.8C213.443 199.761 211.943 199.767 211.992 198.8C212.144 195.782 210.132 193.259 207.552 191.903C204.562 190.33 200.956 190.463 197.696 190.814C191.81 191.447 185.127 192.575 180.882 197.096C176.654 201.599 175.386 208.462 175.649 214.44C175.923 220.68 178.072 226.821 181.84 231.811C189.273 241.658 202.279 246.343 214.244 243.162C225.903 240.062 226.055 233.144 225.863 220.891C225.76 214.355 231.934 204.066 226.893 199.806C221.957 195.636 215.117 193.786 208.8 195.299C207.862 195.524 207.461 194.078 208.401 193.853L208.401 193.853Z" fill="#219D7F"/>
</g>
</g>
<defs>
<clipPath id="clip0_3_14">
<rect width="525" height="530" fill="white"/>
</clipPath>
<clipPath id="clip1_3_14">
<rect width="524.67" height="400.491" fill="white" transform="matrix(-1 0 0 1 524.67 130)"/>
</clipPath>
</defs>
</svg>
