<svg width="219" height="73" viewBox="0 0 219 73" fill="none" xmlns="http://www.w3.org/2000/svg">
<path d="M38.744 1.632C41.24 1.632 43.064 1.856 44.216 2.304C45.432 2.688 46.296 3.36 46.808 4.32C47.512 5.792 47.864 7.776 47.864 10.272V47.424C47.864 54.144 45.432 60.096 40.568 65.28C35.704 70.4 29.496 72.96 21.944 72.96C17.72 72.96 13.976 72.032 10.712 70.176C7.768 68.576 5.72 67.136 4.568 65.856L3.8 65.088C1.56 62.72 0.44 60.704 0.44 59.04C0.44 57.312 1.56 55.296 3.8 52.992C6.04 50.688 8.024 49.536 9.752 49.536C11.48 49.536 13.4 50.592 15.512 52.704C17.624 54.816 19.896 55.872 22.328 55.872C24.824 55.872 26.872 55.04 28.472 53.376C30.072 51.712 30.872 49.504 30.872 46.752V10.848C30.872 7.008 31.512 4.544 32.792 3.456C34.264 2.24 36.248 1.632 38.744 1.632ZM54.0875 46.752C54.0875 39.072 56.7755 32.736 62.1515 27.744C67.5275 22.752 73.6715 20.256 80.5835 20.256C87.4955 20.256 93.6075 22.752 98.9195 27.744C104.232 32.672 106.888 38.976 106.888 46.656C106.888 51.968 105.512 56.704 102.76 60.864C100.008 64.96 96.6475 68 92.6795 69.984C88.7755 71.904 84.7115 72.864 80.4875 72.864C76.2635 72.864 72.1675 71.84 68.1995 69.792C64.2315 67.68 60.8715 64.608 58.1195 60.576C55.4315 56.48 54.0875 51.872 54.0875 46.752ZM74.1515 53.664C76.1995 55.2 78.2795 55.968 80.3915 55.968C82.5035 55.968 84.6155 55.168 86.7275 53.568C88.8395 51.968 89.8955 49.6 89.8955 46.464C89.8955 43.328 88.9035 40.992 86.9195 39.456C84.9355 37.92 82.7915 37.152 80.4875 37.152C78.1835 37.152 76.0395 37.952 74.0555 39.552C72.0715 41.152 71.0795 43.52 71.0795 46.656C71.0795 49.728 72.1035 52.064 74.1515 53.664ZM111.65 46.752C111.65 39.072 114.338 32.736 119.714 27.744C125.09 22.752 131.234 20.256 138.146 20.256C145.058 20.256 151.17 22.752 156.482 27.744C161.794 32.672 164.45 38.976 164.45 46.656C164.45 51.968 163.074 56.704 160.322 60.864C157.57 64.96 154.21 68 150.242 69.984C146.338 71.904 142.274 72.864 138.05 72.864C133.826 72.864 129.73 71.84 125.762 69.792C121.794 67.68 118.434 64.608 115.682 60.576C112.994 56.48 111.65 51.872 111.65 46.752ZM131.714 53.664C133.762 55.2 135.842 55.968 137.954 55.968C140.066 55.968 142.178 55.168 144.29 53.568C146.402 51.968 147.458 49.6 147.458 46.464C147.458 43.328 146.466 40.992 144.482 39.456C142.498 37.92 140.354 37.152 138.05 37.152C135.746 37.152 133.602 37.952 131.618 39.552C129.634 41.152 128.642 43.52 128.642 46.656C128.642 49.728 129.666 52.064 131.714 53.664ZM214.056 2.976C217.192 5.15199 218.76 7.26399 218.76 9.31199C218.76 10.528 218.024 12.224 216.552 14.4L195.816 45.408V63.744C195.816 65.216 195.752 66.336 195.624 67.104C195.56 67.808 195.272 68.64 194.76 69.6C194.248 70.56 193.384 71.232 192.168 71.616C190.952 72 189.32 72.192 187.272 72.192C185.224 72.192 183.592 72 182.376 71.616C181.16 71.232 180.296 70.56 179.784 69.6C179.272 68.576 178.952 67.712 178.824 67.008C178.76 66.24 178.728 65.088 178.728 63.552V45.408L157.992 14.4C156.52 12.224 155.784 10.528 155.784 9.31199C155.784 7.26399 157.192 5.31199 160.008 3.456C162.824 1.536 164.84 0.575998 166.056 0.575998C167.272 0.575998 168.232 0.831997 168.936 1.34399C170.024 2.048 171.176 3.36 172.392 5.27999L187.272 29.088L202.152 5.27999C203.368 3.36 204.424 2.112 205.32 1.536C206.216 0.895998 207.24 0.575998 208.392 0.575998C209.608 0.575998 211.496 1.376 214.056 2.976Z" fill="#0EB990"/>
</svg>
