<svg width="81" height="81" viewBox="0 0 81 81" fill="none" xmlns="http://www.w3.org/2000/svg">
<path d="M13 17C14.1093 17.0427 15.56 17.0853 17.352 17.128C19.144 17.1707 20.936 17.192 22.728 17.192C24.776 17.192 26.76 17.1707 28.68 17.128C30.6 17.0853 31.9653 17.064 32.776 17.064C38.0667 17.064 42.0133 18.0027 44.616 19.88C47.2613 21.7573 48.584 24.168 48.584 27.112C48.584 28.6053 48.136 30.12 47.24 31.656C46.344 33.192 44.9573 34.5573 43.08 35.752C41.2027 36.9467 38.7707 37.8213 35.784 38.376V38.504C39.7947 38.8027 42.9733 39.528 45.32 40.68C47.6667 41.832 49.352 43.2187 50.376 44.84C51.4 46.4613 51.912 48.1467 51.912 49.896C51.912 52.584 51.208 54.8453 49.8 56.68C48.392 58.5147 46.3653 59.9227 43.72 60.904C41.0747 61.8427 37.9173 62.312 34.248 62.312C33.224 62.312 31.752 62.2907 29.832 62.248C27.912 62.1627 25.5867 62.12 22.856 62.12C20.9787 62.12 19.144 62.1413 17.352 62.184C15.56 62.184 14.1093 62.2267 13 62.312V61.032C14.3653 60.9467 15.3893 60.776 16.072 60.52C16.7547 60.264 17.2027 59.752 17.416 58.984C17.672 58.216 17.8 57.064 17.8 55.528V23.784C17.8 22.2053 17.672 21.0533 17.416 20.328C17.2027 19.56 16.7333 19.048 16.008 18.792C15.3253 18.4933 14.3227 18.3227 13 18.28V17ZM31.944 18.28C30.28 18.28 29.192 18.6427 28.68 19.368C28.2107 20.0933 27.976 21.5653 27.976 23.784V55.528C27.976 57.0213 28.0827 58.152 28.296 58.92C28.552 59.688 28.9787 60.2 29.576 60.456C30.216 60.712 31.1547 60.84 32.392 60.84C35.464 60.84 37.704 59.88 39.112 57.96C40.5627 55.9973 41.288 53.224 41.288 49.64C41.288 46.3547 40.456 43.816 38.792 42.024C37.1707 40.232 34.4613 39.336 30.664 39.336H25.224C25.224 39.336 25.224 39.1653 25.224 38.824C25.224 38.44 25.224 38.248 25.224 38.248H30.728C32.7333 38.248 34.2693 37.7787 35.336 36.84C36.4027 35.8587 37.1493 34.5787 37.576 33C38.0027 31.3787 38.216 29.6507 38.216 27.816C38.216 24.6587 37.7253 22.2907 36.744 20.712C35.7627 19.0907 34.1627 18.28 31.944 18.28Z" fill="#219D7F"/>
<path d="M62.464 53.352C64.128 53.352 65.4507 53.8 66.432 54.696C67.4133 55.5493 67.904 56.744 67.904 58.28C67.904 59.816 67.4133 61.032 66.432 61.928C65.4507 62.7813 64.128 63.208 62.464 63.208C60.8 63.208 59.4773 62.7813 58.496 61.928C57.5147 61.032 57.024 59.816 57.024 58.28C57.024 56.744 57.5147 55.5493 58.496 54.696C59.4773 53.8 60.8 53.352 62.464 53.352Z" fill="#219D7F"/>
<rect x="2" y="2" width="77" height="77" stroke="#219D7F" stroke-width="4"/>
</svg>
