<svg width="250" height="116" viewBox="0 0 250 116" fill="none" xmlns="http://www.w3.org/2000/svg">
<path d="M39.744 22.632C42.24 22.632 44.064 22.856 45.216 23.304C46.432 23.688 47.296 24.36 47.808 25.32C48.512 26.792 48.864 28.776 48.864 31.272V68.424C48.864 75.144 46.432 81.096 41.568 86.28C36.704 91.4 30.496 93.96 22.944 93.96C18.72 93.96 14.976 93.032 11.712 91.176C8.768 89.576 6.72 88.136 5.568 86.856L4.8 86.088C2.56 83.72 1.44 81.704 1.44 80.04C1.44 78.312 2.56 76.296 4.8 73.992C7.04 71.688 9.024 70.536 10.752 70.536C12.48 70.536 14.4 71.592 16.512 73.704C18.624 75.816 20.896 76.872 23.328 76.872C25.824 76.872 27.872 76.04 29.472 74.376C31.072 72.712 31.872 70.504 31.872 67.752V31.848C31.872 28.008 32.512 25.544 33.792 24.456C35.264 23.24 37.248 22.632 39.744 22.632ZM55.0875 67.752C55.0875 60.072 57.7755 53.736 63.1515 48.744C68.5275 43.752 74.6715 41.256 81.5835 41.256C88.4955 41.256 94.6075 43.752 99.9195 48.744C105.232 53.672 107.888 59.976 107.888 67.656C107.888 72.968 106.512 77.704 103.76 81.864C101.008 85.96 97.6475 89 93.6795 90.984C89.7755 92.904 85.7115 93.864 81.4875 93.864C77.2635 93.864 73.1675 92.84 69.1995 90.792C65.2315 88.68 61.8715 85.608 59.1195 81.576C56.4315 77.48 55.0875 72.872 55.0875 67.752ZM75.1515 74.664C77.1995 76.2 79.2795 76.968 81.3915 76.968C83.5035 76.968 85.6155 76.168 87.7275 74.568C89.8395 72.968 90.8955 70.6 90.8955 67.464C90.8955 64.328 89.9035 61.992 87.9195 60.456C85.9355 58.92 83.7915 58.152 81.4875 58.152C79.1835 58.152 77.0395 58.952 75.0555 60.552C73.0715 62.152 72.0795 64.52 72.0795 67.656C72.0795 70.728 73.1035 73.064 75.1515 74.664ZM112.65 67.752C112.65 60.072 115.338 53.736 120.714 48.744C126.09 43.752 132.234 41.256 139.146 41.256C146.058 41.256 152.17 43.752 157.482 48.744C162.794 53.672 165.45 59.976 165.45 67.656C165.45 72.968 164.074 77.704 161.322 81.864C158.57 85.96 155.21 89 151.242 90.984C147.338 92.904 143.274 93.864 139.05 93.864C134.826 93.864 130.73 92.84 126.762 90.792C122.794 88.68 119.434 85.608 116.682 81.576C113.994 77.48 112.65 72.872 112.65 67.752ZM132.714 74.664C134.762 76.2 136.842 76.968 138.954 76.968C141.066 76.968 143.178 76.168 145.29 74.568C147.402 72.968 148.458 70.6 148.458 67.464C148.458 64.328 147.466 61.992 145.482 60.456C143.498 58.92 141.354 58.152 139.05 58.152C136.746 58.152 134.602 58.952 132.618 60.552C130.634 62.152 129.642 64.52 129.642 67.656C129.642 70.728 130.666 73.064 132.714 74.664ZM215.056 23.976C218.192 26.152 219.76 28.264 219.76 30.312C219.76 31.528 219.024 33.224 217.552 35.4L196.816 66.408V84.744C196.816 86.216 196.752 87.336 196.624 88.104C196.56 88.808 196.272 89.64 195.76 90.6C195.248 91.56 194.384 92.232 193.168 92.616C191.952 93 190.32 93.192 188.272 93.192C186.224 93.192 184.592 93 183.376 92.616C182.16 92.232 181.296 91.56 180.784 90.6C180.272 89.576 179.952 88.712 179.824 88.008C179.76 87.24 179.728 86.088 179.728 84.552V66.408L158.992 35.4C157.52 33.224 156.784 31.528 156.784 30.312C156.784 28.264 158.192 26.312 161.008 24.456C163.824 22.536 165.84 21.576 167.056 21.576C168.272 21.576 169.232 21.832 169.936 22.344C171.024 23.048 172.176 24.36 173.392 26.28L188.272 50.088L203.152 26.28C204.368 24.36 205.424 23.112 206.32 22.536C207.216 21.896 208.24 21.576 209.392 21.576C210.608 21.576 212.496 22.376 215.056 23.976Z" fill="#0EB990"/>
<circle cx="228" cy="72" r="22" fill="#235B7B"/>
<path d="M218.12 68.708C218.12 68.2787 218.129 67.9613 218.148 67.756C218.185 67.532 218.269 67.28 218.4 67C218.661 66.5147 219.389 66.272 220.584 66.272C221.48 66.272 222.115 66.4307 222.488 66.748C222.805 67.0093 222.973 67.4107 222.992 67.952C223.011 68.1387 223.02 68.4093 223.02 68.764V78.564C223.02 78.9933 223.001 79.32 222.964 79.544C222.945 79.7493 222.861 79.992 222.712 80.272C222.469 80.7573 221.751 81 220.556 81C219.38 81 218.661 80.748 218.4 80.244C218.269 79.964 218.185 79.7213 218.148 79.516C218.129 79.3107 218.12 78.984 218.12 78.536V68.708ZM222.712 63.528C222.581 63.7893 222.339 63.976 221.984 64.088C221.629 64.2 221.153 64.256 220.556 64.256C219.977 64.256 219.511 64.2 219.156 64.088C218.801 63.976 218.549 63.78 218.4 63.5C218.269 63.22 218.185 62.9773 218.148 62.772C218.129 62.548 218.12 62.2213 218.12 61.792C218.12 61.3627 218.129 61.0453 218.148 60.84C218.185 60.616 218.269 60.3733 218.4 60.112C218.661 59.608 219.389 59.356 220.584 59.356C221.76 59.356 222.469 59.608 222.712 60.112C222.861 60.392 222.945 60.644 222.964 60.868C223.001 61.0733 223.02 61.3907 223.02 61.82C223.02 62.2493 223.001 62.576 222.964 62.8C222.945 63.0053 222.861 63.248 222.712 63.528ZM233.461 66.244C235.327 66.244 236.877 66.9627 238.109 68.4C239.359 69.8187 239.985 71.5547 239.985 73.608V78.536C239.985 78.9653 239.966 79.292 239.929 79.516C239.91 79.7213 239.835 79.9547 239.705 80.216C239.443 80.72 238.715 80.972 237.521 80.972C236.195 80.972 235.43 80.6267 235.225 79.936C235.113 79.6187 235.057 79.1427 235.057 78.508V73.58C235.057 72.8147 234.833 72.2173 234.385 71.788C233.955 71.3587 233.367 71.144 232.621 71.144C231.893 71.144 231.295 71.368 230.829 71.816C230.381 72.264 230.157 72.852 230.157 73.58V78.536C230.157 78.9653 230.138 79.292 230.101 79.516C230.082 79.7213 229.998 79.9547 229.849 80.216C229.606 80.72 228.887 80.972 227.693 80.972C226.517 80.972 225.798 80.72 225.537 80.216C225.406 79.936 225.322 79.6933 225.285 79.488C225.266 79.264 225.257 78.9373 225.257 78.508V68.596C225.257 68.1853 225.266 67.8773 225.285 67.672C225.322 67.448 225.415 67.2053 225.565 66.944C225.826 66.4773 226.545 66.244 227.721 66.244C228.859 66.244 229.559 66.4587 229.821 66.888C230.007 67.2053 230.101 67.588 230.101 68.036C230.175 67.9053 230.343 67.7187 230.605 67.476C230.866 67.2333 231.118 67.0373 231.361 66.888C231.995 66.4587 232.695 66.244 233.461 66.244Z" fill="white"/>
</svg>
