<svg width="219" height="73" viewBox="0 0 219 73" fill="none" xmlns="http://www.w3.org/2000/svg">
<path d="M38.304 1.056C40.8 1.056 42.624 1.28 43.776 1.728C44.992 2.112 45.856 2.784 46.368 3.744C47.072 5.216 47.424 7.2 47.424 9.696V46.848C47.424 53.568 44.992 59.52 40.128 64.704C35.264 69.824 29.056 72.384 21.504 72.384C17.28 72.384 13.536 71.456 10.272 69.6C7.328 68 5.28 66.56 4.128 65.28L3.36 64.512C1.12 62.144 0 60.128 0 58.464C0 56.736 1.12 54.72 3.36 52.416C5.6 50.112 7.584 48.96 9.312 48.96C11.04 48.96 12.96 50.016 15.072 52.128C17.184 54.24 19.456 55.296 21.888 55.296C24.384 55.296 26.432 54.464 28.032 52.8C29.632 51.136 30.432 48.928 30.432 46.176V10.272C30.432 6.432 31.072 3.968 32.352 2.88C33.824 1.664 35.808 1.056 38.304 1.056Z" fill="#0EB990"/>
<path d="M53.6475 46.176C53.6475 38.496 56.3355 32.16 61.7115 27.168C67.0875 22.176 73.2315 19.68 80.1435 19.68C87.0555 19.68 93.1675 22.176 98.4795 27.168C103.792 32.096 106.448 38.4 106.448 46.08C106.448 51.392 105.071 56.128 102.319 60.288C99.5675 64.384 96.2075 67.424 92.2395 69.408C88.3355 71.328 84.2715 72.288 80.0475 72.288C75.8235 72.288 71.7275 71.264 67.7595 69.216C63.7915 67.104 60.4315 64.032 57.6795 60C54.9915 55.904 53.6475 51.296 53.6475 46.176ZM73.7115 53.088C75.7595 54.624 77.8395 55.392 79.9515 55.392C82.0635 55.392 84.1755 54.592 86.2875 52.992C88.3995 51.392 89.4555 49.024 89.4555 45.888C89.4555 42.752 88.4635 40.416 86.4795 38.88C84.4955 37.344 82.3515 36.576 80.0475 36.576C77.7435 36.576 75.5995 37.376 73.6155 38.976C71.6315 40.576 70.6395 42.944 70.6395 46.08C70.6395 49.152 71.6635 51.488 73.7115 53.088Z" fill="#0EB990"/>
<path d="M111.21 46.176C111.21 38.496 113.898 32.16 119.274 27.168C124.65 22.176 130.794 19.68 137.706 19.68C144.618 19.68 150.73 22.176 156.042 27.168C161.354 32.096 164.01 38.4 164.01 46.08C164.01 51.392 162.634 56.128 159.882 60.288C157.13 64.384 153.77 67.424 149.802 69.408C145.898 71.328 141.834 72.288 137.61 72.288C133.386 72.288 129.29 71.264 125.322 69.216C121.354 67.104 117.994 64.032 115.242 60C112.554 55.904 111.21 51.296 111.21 46.176ZM131.274 53.088C133.322 54.624 135.402 55.392 137.514 55.392C139.626 55.392 141.738 54.592 143.85 52.992C145.962 51.392 147.018 49.024 147.018 45.888C147.018 42.752 146.026 40.416 144.042 38.88C142.058 37.344 139.914 36.576 137.61 36.576C135.306 36.576 133.162 37.376 131.178 38.976C129.194 40.576 128.202 42.944 128.202 46.08C128.202 49.152 129.226 51.488 131.274 53.088Z" fill="#0EB990"/>
<path d="M213.616 2.4C216.752 4.576 218.32 6.688 218.32 8.736C218.32 9.952 217.584 11.648 216.112 13.824L195.376 44.832V63.168C195.376 64.64 195.312 65.76 195.184 66.528C195.12 67.232 194.832 68.064 194.32 69.024C193.808 69.984 192.944 70.656 191.728 71.04C190.512 71.424 188.88 71.616 186.832 71.616C184.784 71.616 183.152 71.424 181.936 71.04C180.72 70.656 179.856 69.984 179.344 69.024C178.832 68 178.512 67.136 178.384 66.432C178.32 65.664 178.288 64.512 178.288 62.976V44.832L157.552 13.824C156.08 11.648 155.344 9.952 155.344 8.736C155.344 6.688 156.752 4.736 159.568 2.88C162.384 0.959999 164.4 0 165.616 0C166.832 0 167.792 0.255999 168.496 0.767996C169.584 1.472 170.736 2.784 171.952 4.704L186.832 28.512L201.712 4.704C202.928 2.784 203.984 1.536 204.88 0.959999C205.776 0.32 206.8 0 207.952 0C209.168 0 211.056 0.799999 213.616 2.4Z" fill="#0EB990"/>
</svg>
