<svg width="79" height="116" viewBox="0 0 79 116" fill="none" xmlns="http://www.w3.org/2000/svg">
<path d="M39.744 22.632C42.24 22.632 44.064 22.856 45.216 23.304C46.432 23.688 47.296 24.36 47.808 25.32C48.512 26.792 48.864 28.776 48.864 31.272V68.424C48.864 75.144 46.432 81.096 41.568 86.28C36.704 91.4 30.496 93.96 22.944 93.96C18.72 93.96 14.976 93.032 11.712 91.176C8.768 89.576 6.72 88.136 5.568 86.856L4.8 86.088C2.56 83.72 1.44 81.704 1.44 80.04C1.44 78.312 2.56 76.296 4.8 73.992C7.04 71.688 9.024 70.536 10.752 70.536C12.48 70.536 14.4 71.592 16.512 73.704C18.624 75.816 20.896 76.872 23.328 76.872C25.824 76.872 27.872 76.04 29.472 74.376C31.072 72.712 31.872 70.504 31.872 67.752V31.848C31.872 28.008 32.512 25.544 33.792 24.456C35.264 23.24 37.248 22.632 39.744 22.632Z" fill="#0EB990"/>
<circle cx="66" cy="80" r="13" fill="#235B7B"/>
</svg>
