<svg width="266" height="63" viewBox="0 0 266 63" fill="none" xmlns="http://www.w3.org/2000/svg">
<path d="M0.175995 4.688C1.28533 4.73066 2.73599 4.77333 4.528 4.81599C6.32 4.85866 8.112 4.87999 9.904 4.87999C11.952 4.87999 13.936 4.85866 15.856 4.81599C17.776 4.77333 19.1413 4.752 19.952 4.752C25.2427 4.752 29.1893 5.69066 31.792 7.56799C34.4373 9.44533 35.76 11.856 35.76 14.8C35.76 16.2933 35.312 17.808 34.416 19.344C33.52 20.88 32.1333 22.2453 30.256 23.44C28.3787 24.6347 25.9467 25.5093 22.96 26.064V26.192C26.9707 26.4907 30.1493 27.216 32.496 28.368C34.8427 29.52 36.528 30.9067 37.552 32.528C38.576 34.1493 39.088 35.8347 39.088 37.584C39.088 40.272 38.384 42.5333 36.976 44.368C35.568 46.2027 33.5413 47.6107 30.896 48.592C28.2507 49.5307 25.0933 50 21.424 50C20.4 50 18.928 49.9787 17.008 49.936C15.088 49.8507 12.7627 49.808 10.032 49.808C8.15466 49.808 6.32 49.8293 4.528 49.872C2.73599 49.872 1.28533 49.9147 0.175995 50V48.72C1.54133 48.6347 2.56533 48.464 3.24799 48.208C3.93066 47.952 4.37866 47.44 4.592 46.672C4.848 45.904 4.976 44.752 4.976 43.216V11.472C4.976 9.89333 4.848 8.74133 4.592 8.016C4.37866 7.24799 3.90933 6.73599 3.18399 6.48C2.50133 6.18133 1.49866 6.01066 0.175995 5.96799V4.688ZM19.12 5.96799C17.456 5.96799 16.368 6.33066 15.856 7.056C15.3867 7.78133 15.152 9.25333 15.152 11.472V43.216C15.152 44.7093 15.2587 45.84 15.472 46.608C15.728 47.376 16.1547 47.888 16.752 48.144C17.392 48.4 18.3307 48.528 19.568 48.528C22.64 48.528 24.88 47.568 26.288 45.648C27.7387 43.6853 28.464 40.912 28.464 37.328C28.464 34.0427 27.632 31.504 25.968 29.712C24.3467 27.92 21.6373 27.024 17.84 27.024H12.4C12.4 27.024 12.4 26.8533 12.4 26.512C12.4 26.128 12.4 25.936 12.4 25.936H17.904C19.9093 25.936 21.4453 25.4667 22.512 24.528C23.5787 23.5467 24.3253 22.2667 24.752 20.688C25.1787 19.0667 25.392 17.3387 25.392 15.504C25.392 12.3467 24.9013 9.97866 23.92 8.39999C22.9387 6.77866 21.3387 5.96799 19.12 5.96799Z" fill="black"/>
<path d="M50.731 0.399994C52.523 0.399994 53.931 0.847995 54.955 1.744C56.0217 2.59733 56.555 3.79199 56.555 5.328C56.555 6.86399 56.0217 8.07999 54.955 8.97599C53.931 9.82933 52.523 10.256 50.731 10.256C48.939 10.256 47.5097 9.82933 46.443 8.97599C45.419 8.07999 44.907 6.86399 44.907 5.328C44.907 3.79199 45.419 2.59733 46.443 1.744C47.5097 0.847995 48.939 0.399994 50.731 0.399994ZM55.723 16.208V44.048C55.723 45.84 56.0217 47.056 56.619 47.696C57.259 48.336 58.3257 48.656 59.819 48.656V50C59.051 49.9573 57.8563 49.9147 56.235 49.872C54.6137 49.7867 52.971 49.744 51.307 49.744C49.643 49.744 47.9577 49.7867 46.251 49.872C44.5443 49.9147 43.2643 49.9573 42.411 50V48.656C43.9043 48.656 44.9497 48.336 45.547 47.696C46.187 47.056 46.507 45.84 46.507 44.048V23.888C46.507 21.968 46.2083 20.56 45.611 19.664C45.0563 18.7253 43.9897 18.256 42.411 18.256V16.912C43.7763 17.04 45.099 17.104 46.379 17.104C48.171 17.104 49.835 17.04 51.371 16.912C52.9497 16.7413 54.4003 16.5067 55.723 16.208Z" fill="black"/>
<path d="M75.0145 62.032C72.3692 62.032 70.0012 61.7973 67.9105 61.328C65.8625 60.9013 64.2412 60.2187 63.0465 59.28C61.8945 58.384 61.3185 57.2747 61.3185 55.952C61.3185 54.6293 61.9158 53.4347 63.1105 52.368C64.3052 51.344 66.0758 50.5333 68.4225 49.936L68.9985 50.96C68.1878 51.6 67.5905 52.2827 67.2065 53.008C66.8652 53.776 66.6945 54.5653 66.6945 55.376C66.6945 57.168 67.5052 58.5333 69.1265 59.472C70.7905 60.4533 73.0305 60.944 75.8465 60.944C77.7665 60.944 79.4732 60.688 80.9665 60.176C82.5025 59.664 83.6972 58.896 84.5505 57.872C85.4465 56.848 85.8945 55.5893 85.8945 54.096C85.8945 52.816 85.4252 51.728 84.4865 50.832C83.5478 49.9787 81.6705 49.552 78.8545 49.552H74.8865C73.1372 49.552 71.6012 49.36 70.2785 48.976C68.9985 48.592 67.9958 47.9947 67.2705 47.184C66.5452 46.3307 66.1825 45.264 66.1825 43.984C66.1825 42.192 66.8865 40.6133 68.2945 39.248C69.7025 37.8827 71.7932 36.6027 74.5665 35.408L75.2065 35.92C74.3958 36.432 73.6278 36.9867 72.9025 37.584C72.2198 38.1387 71.8785 38.864 71.8785 39.76C71.8785 41.1253 72.7318 41.808 74.4385 41.808H81.4145C83.7612 41.808 85.8518 42.0853 87.6865 42.64C89.5638 43.1947 91.0358 44.112 92.1025 45.392C93.2118 46.6293 93.7665 48.2507 93.7665 50.256C93.7665 52.3467 93.0838 54.288 91.7185 56.08C90.3958 57.872 88.3478 59.3013 85.5745 60.368C82.8012 61.4773 79.2812 62.032 75.0145 62.032ZM75.6545 36.368C73.2225 36.368 71.0465 36.0053 69.1265 35.28C67.2065 34.5547 65.6918 33.4453 64.5825 31.952C63.4732 30.4587 62.9185 28.5387 62.9185 26.192C62.9185 23.8453 63.4732 21.9253 64.5825 20.432C65.6918 18.896 67.2065 17.7867 69.1265 17.104C71.0465 16.3787 73.2225 16.016 75.6545 16.016C78.0865 16.016 80.2625 16.3787 82.1825 17.104C84.1025 17.7867 85.6172 18.896 86.7265 20.432C87.8358 21.9253 88.3905 23.8453 88.3905 26.192C88.3905 28.5387 87.8358 30.4587 86.7265 31.952C85.6172 33.4453 84.1025 34.5547 82.1825 35.28C80.2625 36.0053 78.0865 36.368 75.6545 36.368ZM75.6545 35.216C76.8065 35.216 77.7025 34.576 78.3425 33.296C78.9825 31.9733 79.3025 29.6053 79.3025 26.192C79.3025 22.7787 78.9825 20.432 78.3425 19.152C77.7025 17.8293 76.8065 17.168 75.6545 17.168C74.5452 17.168 73.6492 17.8293 72.9665 19.152C72.3265 20.432 72.0065 22.7787 72.0065 26.192C72.0065 29.6053 72.3265 31.9733 72.9665 33.296C73.6492 34.576 74.5452 35.216 75.6545 35.216ZM85.6385 21.52L84.3585 21.072C84.9985 19.408 86.0225 18.0213 87.4305 16.912C88.8812 15.8027 90.4385 15.248 92.1025 15.248C93.4678 15.248 94.4918 15.632 95.1745 16.4C95.8998 17.1253 96.2625 18.0853 96.2625 19.28C96.2625 20.56 95.9212 21.52 95.2385 22.16C94.5558 22.7573 93.7878 23.056 92.9345 23.056C92.2092 23.056 91.5265 22.8 90.8865 22.288C90.2892 21.776 89.9478 21.008 89.8625 19.984C89.7772 18.9173 90.1398 17.552 90.9505 15.888L91.3985 16.272C89.7772 16.8693 88.5612 17.5733 87.7505 18.384C86.9398 19.152 86.2358 20.1973 85.6385 21.52Z" fill="black"/>
<path d="M154.216 4.688V5.96799C152.851 6.01066 151.827 6.18133 151.144 6.48C150.461 6.73599 149.992 7.24799 149.736 8.016C149.523 8.74133 149.416 9.89333 149.416 11.472V43.216C149.416 44.752 149.523 45.904 149.736 46.672C149.992 47.44 150.461 47.952 151.144 48.208C151.827 48.464 152.851 48.6347 154.216 48.72V50C153.021 49.9147 151.507 49.872 149.672 49.872C147.88 49.8293 146.045 49.808 144.168 49.808C142.12 49.808 140.2 49.8293 138.408 49.872C136.616 49.872 135.165 49.9147 134.056 50V48.72C135.507 48.6347 136.595 48.464 137.32 48.208C138.088 47.952 138.6 47.44 138.856 46.672C139.112 45.904 139.24 44.752 139.24 43.216V8.592H139.688L123.816 50.064H122.792L105.512 8.848V39.504C105.512 41.8507 105.64 43.664 105.896 44.944C106.152 46.1813 106.707 47.0773 107.56 47.632C108.456 48.144 109.843 48.5067 111.72 48.72V50C110.909 49.9147 109.843 49.872 108.52 49.872C107.197 49.8293 105.96 49.808 104.808 49.808C103.827 49.808 102.824 49.8293 101.8 49.872C100.776 49.872 99.9227 49.9147 99.24 50V48.72C100.605 48.5067 101.629 48.144 102.312 47.632C102.995 47.12 103.443 46.288 103.656 45.136C103.912 43.9413 104.04 42.32 104.04 40.272V11.472C104.04 9.89333 103.912 8.74133 103.656 8.016C103.443 7.24799 102.973 6.73599 102.248 6.48C101.565 6.18133 100.563 6.01066 99.24 5.96799V4.688C99.9227 4.73066 100.776 4.77333 101.8 4.81599C102.824 4.85866 103.827 4.87999 104.808 4.87999C106.643 4.87999 108.435 4.85866 110.184 4.81599C111.976 4.77333 113.555 4.73066 114.92 4.688L128.36 37.136L126.76 38.608L139.624 4.87999C140.349 4.87999 141.096 4.87999 141.864 4.87999C142.632 4.87999 143.4 4.87999 144.168 4.87999C146.045 4.87999 147.88 4.85866 149.672 4.81599C151.507 4.77333 153.021 4.73066 154.216 4.688Z" fill="#219D7F"/>
<path d="M166.169 0.399994C167.961 0.399994 169.369 0.847995 170.393 1.744C171.459 2.59733 171.993 3.79199 171.993 5.328C171.993 6.86399 171.459 8.07999 170.393 8.97599C169.369 9.82933 167.961 10.256 166.169 10.256C164.377 10.256 162.947 9.82933 161.881 8.97599C160.857 8.07999 160.345 6.86399 160.345 5.328C160.345 3.79199 160.857 2.59733 161.881 1.744C162.947 0.847995 164.377 0.399994 166.169 0.399994ZM171.161 16.208V44.048C171.161 45.84 171.459 47.056 172.057 47.696C172.697 48.336 173.763 48.656 175.257 48.656V50C174.489 49.9573 173.294 49.9147 171.673 49.872C170.051 49.7867 168.409 49.744 166.745 49.744C165.081 49.744 163.395 49.7867 161.689 49.872C159.982 49.9147 158.702 49.9573 157.849 50V48.656C159.342 48.656 160.387 48.336 160.985 47.696C161.625 47.056 161.945 45.84 161.945 44.048V23.888C161.945 21.968 161.646 20.56 161.049 19.664C160.494 18.7253 159.427 18.256 157.849 18.256V16.912C159.214 17.04 160.537 17.104 161.817 17.104C163.609 17.104 165.273 17.04 166.809 16.912C168.387 16.7413 169.838 16.5067 171.161 16.208Z" fill="#219D7F"/>
<path d="M201.844 16.016C203.636 16.016 205.087 16.2507 206.196 16.72C207.348 17.1467 208.244 17.744 208.884 18.512C209.567 19.3227 210.057 20.368 210.356 21.648C210.697 22.928 210.868 24.656 210.868 26.832V44.048C210.868 45.84 211.167 47.056 211.764 47.696C212.404 48.336 213.471 48.656 214.964 48.656V50C214.153 49.9573 212.937 49.9147 211.316 49.872C209.695 49.7867 208.095 49.744 206.516 49.744C204.895 49.744 203.295 49.7867 201.716 49.872C200.18 49.9147 199.007 49.9573 198.196 50V48.656C199.476 48.656 200.372 48.336 200.884 47.696C201.396 47.056 201.652 45.84 201.652 44.048V24.144C201.652 23.0773 201.545 22.16 201.332 21.392C201.119 20.5813 200.735 19.9627 200.18 19.536C199.625 19.0667 198.793 18.832 197.684 18.832C196.532 18.832 195.465 19.152 194.484 19.792C193.545 20.432 192.777 21.328 192.18 22.48C191.625 23.5893 191.348 24.848 191.348 26.256V44.048C191.348 45.84 191.604 47.056 192.116 47.696C192.671 48.336 193.567 48.656 194.804 48.656V50C194.036 49.9573 192.905 49.9147 191.412 49.872C189.961 49.7867 188.447 49.744 186.868 49.744C185.247 49.744 183.583 49.7867 181.876 49.872C180.169 49.9147 178.889 49.9573 178.036 50V48.656C179.529 48.656 180.575 48.336 181.172 47.696C181.812 47.056 182.132 45.84 182.132 44.048V23.888C182.132 21.968 181.833 20.56 181.236 19.664C180.681 18.7253 179.615 18.256 178.036 18.256V16.912C179.401 17.04 180.724 17.104 182.004 17.104C183.796 17.104 185.46 17.04 186.996 16.912C188.575 16.7413 190.025 16.5067 191.348 16.208V21.968C192.415 19.792 193.865 18.256 195.7 17.36C197.535 16.464 199.583 16.016 201.844 16.016Z" fill="#219D7F"/>
<path d="M230.34 6.41599V16.912H237.893V18.192H230.34V44.048C230.34 45.328 230.575 46.2453 231.044 46.8C231.514 47.312 232.218 47.568 233.156 47.568C233.924 47.568 234.692 47.2907 235.46 46.736C236.228 46.1387 236.911 45.136 237.508 43.728L238.596 44.304C237.914 46.224 236.868 47.8027 235.46 49.04C234.095 50.2773 232.218 50.896 229.829 50.896C228.421 50.896 227.183 50.704 226.117 50.32C225.05 49.9787 224.154 49.4453 223.429 48.72C222.49 47.7813 221.871 46.6293 221.573 45.264C221.274 43.856 221.125 42.0427 221.125 39.824V18.192H215.749V16.912H221.125V8.46399C222.917 8.46399 224.559 8.31466 226.053 8.016C227.589 7.67466 229.018 7.14133 230.34 6.41599Z" fill="#219D7F"/>
<path d="M252.521 16.016C254.313 16.016 255.87 16.2507 257.193 16.72C258.558 17.1467 259.539 17.5733 260.137 18C261.587 18.9813 262.483 18.3413 262.824 16.08H264.169C264.083 17.2747 264.019 18.7467 263.977 20.496C263.934 22.2027 263.913 24.4853 263.913 27.344H262.568C262.355 25.7653 261.95 24.208 261.353 22.672C260.755 21.136 259.881 19.8773 258.729 18.896C257.619 17.9147 256.168 17.424 254.376 17.424C253.139 17.424 252.094 17.7867 251.24 18.512C250.387 19.1947 249.96 20.1973 249.96 21.52C249.96 22.8 250.345 23.9307 251.113 24.912C251.881 25.8507 252.862 26.768 254.057 27.664C255.294 28.5173 256.574 29.4347 257.896 30.416C259.304 31.4827 260.584 32.5493 261.736 33.616C262.888 34.64 263.806 35.7707 264.488 37.008C265.171 38.2453 265.512 39.7173 265.512 41.424C265.512 43.344 264.958 45.0293 263.848 46.48C262.739 47.888 261.267 48.976 259.432 49.744C257.64 50.512 255.635 50.896 253.417 50.896C252.137 50.896 250.984 50.768 249.96 50.512C248.979 50.256 248.126 49.936 247.4 49.552C246.846 49.296 246.313 49.0613 245.801 48.848C245.331 48.592 244.883 48.3787 244.456 48.208C244.03 48.08 243.646 48.2293 243.305 48.656C243.006 49.0827 242.771 49.68 242.6 50.448H241.257C241.342 49.0827 241.406 47.4187 241.449 45.456C241.491 43.4933 241.512 40.8907 241.512 37.648H242.857C243.113 39.952 243.582 42 244.264 43.792C244.947 45.5413 245.864 46.928 247.016 47.952C248.211 48.9333 249.705 49.424 251.497 49.424C252.222 49.424 252.926 49.2747 253.609 48.976C254.291 48.6773 254.846 48.1867 255.273 47.504C255.742 46.8213 255.977 45.9467 255.977 44.88C255.977 43.0027 255.358 41.4453 254.12 40.208C252.926 38.9707 251.39 37.6267 249.512 36.176C248.147 35.0667 246.846 33.9787 245.609 32.912C244.414 31.8027 243.433 30.608 242.665 29.328C241.897 28.0053 241.512 26.512 241.512 24.848C241.512 22.928 242.024 21.3067 243.048 19.984C244.072 18.6613 245.417 17.68 247.081 17.04C248.787 16.3573 250.601 16.016 252.521 16.016Z" fill="#219D7F"/>
</svg>
