<svg width="32" height="32" viewBox="0 0 32 32" fill="none" xmlns="http://www.w3.org/2000/svg">
<g clip-path="url(#clip0_1_2)">
<path d="M5.1358 6.71605C5.57405 6.73292 6.14716 6.74975 6.85511 6.76662C7.56306 6.78349 8.27101 6.7919 8.97896 6.7919C9.78805 6.7919 10.5719 6.78349 11.3304 6.76662C12.0889 6.74975 12.6283 6.74133 12.9485 6.74133C15.0387 6.74133 16.5978 7.11218 17.6261 7.85383C18.6711 8.59548 19.1937 9.54785 19.1937 10.7109C19.1937 11.3009 19.0167 11.8993 18.6627 12.5061C18.3087 13.1129 17.7609 13.6523 17.0193 14.1242C16.2776 14.5962 15.3168 14.9417 14.1369 15.1609V15.2115C15.7214 15.3295 16.9771 15.616 17.9042 16.0711C18.8313 16.5262 19.4971 17.0741 19.9016 17.7146C20.3062 18.3551 20.5084 19.0209 20.5084 19.712C20.5084 20.7739 20.2303 21.6673 19.6741 22.3921C19.1178 23.1169 18.3172 23.6732 17.2721 24.0608C16.227 24.4317 14.9797 24.6171 13.5301 24.6171C13.1255 24.6171 12.544 24.6087 11.7855 24.5918C11.027 24.5581 10.1083 24.5412 9.02953 24.5412C8.28788 24.5412 7.56306 24.5496 6.85511 24.5665C6.14716 24.5665 5.57405 24.5834 5.1358 24.6171V24.1114C5.67518 24.0777 6.07972 24.0103 6.34943 23.9091C6.61914 23.808 6.79613 23.6057 6.8804 23.3023C6.98153 22.9989 7.0321 22.5438 7.0321 21.937V9.39615C7.0321 8.77246 6.98153 8.31735 6.8804 8.03081C6.79613 7.72741 6.61069 7.52514 6.32415 7.424C6.05444 7.30599 5.65835 7.2386 5.1358 7.22173V6.71605ZM12.6199 7.22173C11.9625 7.22173 11.5326 7.36502 11.3304 7.65156C11.145 7.93809 11.0522 8.51962 11.0522 9.39615V21.937C11.0522 22.5269 11.0944 22.9736 11.1787 23.277C11.2798 23.5804 11.4484 23.7827 11.6843 23.8839C11.9372 23.985 12.308 24.0356 12.7968 24.0356C14.0105 24.0356 14.8954 23.6563 15.4517 22.8978C16.0248 22.1224 16.3113 21.0268 16.3113 19.6109C16.3113 18.313 15.9826 17.31 15.3252 16.6021C14.6847 15.8941 13.6143 15.5401 12.1142 15.5401H9.96504C9.96504 15.5401 9.96504 15.4727 9.96504 15.3379C9.96504 15.1862 9.96504 15.1103 9.96504 15.1103H12.1395C12.9317 15.1103 13.5385 14.9249 13.9599 14.5541C14.3813 14.1664 14.6763 13.6607 14.8448 13.037C15.0134 12.3965 15.0977 11.7139 15.0977 10.989C15.0977 9.74171 14.9038 8.8062 14.5161 8.18252C14.1285 7.542 13.4964 7.22173 12.6199 7.22173Z" fill="#219D7F"/>
<path d="M24.6771 21.0773C25.3345 21.0773 25.8571 21.2543 26.2447 21.6083C26.6324 21.9454 26.8263 22.4174 26.8263 23.0242C26.8263 23.631 26.6324 24.1114 26.2447 24.4654C25.8571 24.8025 25.3345 24.9711 24.6771 24.9711C24.0198 24.9711 23.4972 24.8025 23.1095 24.4654C22.7219 24.1114 22.528 23.631 22.528 23.0242C22.528 22.4174 22.7219 21.9454 23.1095 21.6083C23.4972 21.2543 24.0198 21.0773 24.6771 21.0773Z" fill="#219D7F"/>
<path d="M31.2099 0.790131H0.790131V31.2099H31.2099V0.790131Z" stroke="#219D7F" stroke-width="4"/>
</g>
<defs>
<clipPath id="clip0_1_2">
<rect width="32" height="32" fill="white"/>
</clipPath>
</defs>
</svg>
